<?xml version="1.0" encoding="UTF-8" standalone="no"?>
<!-- Created with Inkscape (http://www.inkscape.org/) -->

<svg
   xmlns:dc="http://purl.org/dc/elements/1.1/"
   xmlns:cc="http://creativecommons.org/ns#"
   xmlns:rdf="http://www.w3.org/1999/02/22-rdf-syntax-ns#"
   xmlns:svg="http://www.w3.org/2000/svg"
   xmlns="http://www.w3.org/2000/svg"
   xmlns:sodipodi="http://sodipodi.sourceforge.net/DTD/sodipodi-0.dtd"
   xmlns:inkscape="http://www.inkscape.org/namespaces/inkscape"
   id="svg3369"
   version="1.1"
   inkscape:version="0.91 r13725"
   xml:space="preserve"
   width="1052.3625"
   height="744.09998"
   viewBox="0 0 1052.3625 744.09998"
   sodipodi:docname="rimfosa_korb_spacer.svg"><metadata
     id="metadata3375"><rdf:RDF><cc:Work
         rdf:about=""><dc:format>image/svg+xml</dc:format><dc:type
           rdf:resource="http://purl.org/dc/dcmitype/StillImage" /><dc:title /></cc:Work></rdf:RDF></metadata><defs
     id="defs3373"><clipPath
       clipPathUnits="userSpaceOnUse"
       id="clipPath3383"><path
         d="m 0,595.28 841.89,0 L 841.89,0 0,0 0,595.28 Z"
         id="path3385"
         inkscape:connector-curvature="0" /></clipPath></defs><sodipodi:namedview
     pagecolor="#ffffff"
     bordercolor="#666666"
     borderopacity="1"
     objecttolerance="10"
     gridtolerance="10"
     guidetolerance="10"
     inkscape:pageopacity="0"
     inkscape:pageshadow="2"
     inkscape:window-width="2560"
     inkscape:window-height="1381"
     id="namedview3371"
     showgrid="false"
     inkscape:zoom="0.8970687"
     inkscape:cx="571.50378"
     inkscape:cy="437.64425"
     inkscape:window-x="0"
     inkscape:window-y="0"
     inkscape:window-maximized="1"
     inkscape:current-layer="g3377" /><g
     id="g3377"
     inkscape:groupmode="layer"
     inkscape:label="100 [feed=500,ppm=30]"
     transform="matrix(1.25,0,0,-1.25,0,744.1)"><path
       style="fill:none;stroke:#373535;stroke-width:1;stroke-linecap:butt;stroke-linejoin:miter;stroke-miterlimit:10;stroke-dasharray:none;stroke-opacity:1"
       d="m 328.39163,463.91101 -207.261,0 c 0,0 -12.913,-0.675 -12.913,12.332 0,13.007 12.913,12.418 12.913,12.418 l 207.261,0 c 0,0 12.913,0.589 12.913,-12.418 0,-13.007 -12.913,-12.332 -12.913,-12.332 z"
       id="path4157"
       inkscape:connector-curvature="0" /><path
       style="fill:none;stroke:#373535;stroke-width:1;stroke-linecap:butt;stroke-linejoin:miter;stroke-miterlimit:10;stroke-dasharray:none;stroke-opacity:1"
       d="m 308.22463,384.41101 -166.927,0 c 0,0 -12.913,-0.675 -12.913,12.332 0,13.007 12.913,12.418 12.913,12.418 l 166.927,0 c 0,0 12.913,0.589 12.913,-12.418 0,-13.007 -12.913,-12.332 -12.913,-12.332 z"
       id="path4155"
       inkscape:connector-curvature="0" /><path
       style="fill:none;stroke:#373535;stroke-width:1;stroke-linecap:butt;stroke-linejoin:miter;stroke-miterlimit:10;stroke-dasharray:none;stroke-opacity:1"
       d="m 428.27163,560.43601 c -0.442,0 -2.63,10e-4 -2.63,10e-4 0,0 -0.578,0.052 -0.825,-0.47 -1.164,-2.817 -4.632,-4.862 -8.739,-4.862 -3.809,0 -7.069,1.759 -8.451,4.261 -0.19,0.345 -0.39,1.073 -1.262,1.073 l -363.207002,0 c -0.872,0 -1.072,-0.728 -1.263,-1.073 -1.381,-2.502 -4.641,-4.261 -8.45,-4.261 -4.107,0 -7.575,2.045 -8.739,4.862 -0.247,0.522 -0.825,0.47 -0.825,0.47 0,0 -2.188,-10e-4 -2.63,-10e-4 -0.442,0 -3.714,-0.244 0.956,-15.88 5.22,-16.689 7.792,-18.527 12.792,-14.925 5,3.603 11.544,1.838 12.499,-2.794 0.955,-4.631 34.383,-144.593 40.216,-163.759 5.833,-19.167 19.500002,-27.333 33.833002,-28.5 0,0 11,1.166 11,-12.167 0,-13.333 2.667,-13.833 8.834,-13.833 l 8.166,0 c 3.167,0 8,0.167 8,7 l 0,8.833 c 0,0 -2.333,9 11.334,9 l 111.761,0 c 13.667,0 11.333,-9 11.333,-9 l 0,-8.833 c 0,-6.833 4.834,-7 8,-7 l 8.167,0 c 6.167,0 8.833,0.5 8.833,13.833 0,13.333 11,12.167 11,12.167 14.334,1.167 28,9.333 33.834,28.5 5.833,19.166 39.261,159.128 40.216,163.759 0.955,4.632 7.499,6.397 12.499,2.794 5,-3.602 7.572,-1.764 12.792,14.925 4.67,15.636 1.398,15.88 0.956,15.88 z"
       id="path3389"
       inkscape:connector-curvature="0" /><path
       inkscape:connector-curvature="0"
       style="fill:none;stroke:#373535;stroke-width:1;stroke-linecap:butt;stroke-linejoin:miter;stroke-miterlimit:10;stroke-dasharray:none;stroke-opacity:1"
       d="m 329.25425,202.41045 -207.261,0 c 0,0 -12.913,-0.675 -12.913,12.332 0,13.007 12.913,12.418 12.913,12.418 l 207.261,0 c 0,0 12.913,0.589 12.913,-12.418 0,-13.007 -12.913,-12.332 -12.913,-12.332 z"
       id="path4157-3" /><path
       inkscape:connector-curvature="0"
       style="fill:none;stroke:#373535;stroke-width:1;stroke-linecap:butt;stroke-linejoin:miter;stroke-miterlimit:10;stroke-dasharray:none;stroke-opacity:1"
       d="m 309.08725,122.91045 -166.927,0 c 0,0 -12.913,-0.675 -12.913,12.332 0,13.007 12.913,12.418 12.913,12.418 l 166.927,0 c 0,0 12.913,0.589 12.913,-12.418 0,-13.007 -12.913,-12.332 -12.913,-12.332 z"
       id="path4155-6" /><path
       inkscape:connector-curvature="0"
       style="fill:none;stroke:#373535;stroke-width:1;stroke-linecap:butt;stroke-linejoin:miter;stroke-miterlimit:10;stroke-dasharray:none;stroke-opacity:1"
       d="m 429.13425,298.93545 c -0.442,0 -2.63,10e-4 -2.63,10e-4 0,0 -0.578,0.052 -0.825,-0.47 -1.164,-2.817 -4.632,-4.862 -8.739,-4.862 -3.809,0 -7.069,1.759 -8.451,4.261 -0.19,0.345 -0.39,1.073 -1.262,1.073 l -363.207003,0 c -0.872,0 -1.072,-0.728 -1.263,-1.073 -1.381,-2.502 -4.641,-4.261 -8.45,-4.261 -4.107,0 -7.575001,2.045 -8.739001,4.862 -0.247,0.522 -0.825,0.47 -0.825,0.47 0,0 -2.188,-10e-4 -2.63,-10e-4 -0.442,0 -3.714,-0.244 0.956,-15.88 5.22,-16.689 7.792001,-18.527 12.792001,-14.925 5,3.603 11.544,1.838 12.499,-2.794 0.955,-4.631 34.383,-144.593 40.216,-163.759 5.833,-19.167003 19.500003,-27.333 33.833003,-28.5 0,0 11,1.166 11,-12.167 0,-13.333 2.667,-13.833 8.834,-13.833 l 8.166,0 c 3.167,0 8,0.167 8,7 l 0,8.833 c 0,0 -2.333,9 11.334,9 l 111.761,0 c 13.667,0 11.333,-9 11.333,-9 l 0,-8.833 c 0,-6.833 4.834,-7 8,-7 l 8.167,0 c 6.167,0 8.833,0.5 8.833,13.833 0,13.333 11,12.167 11,12.167 14.334,1.167 28,9.332997 33.834,28.5 5.833,19.166 39.261,159.128 40.216,163.759 0.955,4.632 7.499,6.397 12.499,2.794 5,-3.602 7.572,-1.764 12.792,14.925 4.67,15.636 1.398,15.88 0.956,15.88 z"
       id="path3389-7" /><path
       inkscape:connector-curvature="0"
       style="fill:none;stroke:#373535;stroke-width:1;stroke-linecap:butt;stroke-linejoin:miter;stroke-miterlimit:10;stroke-dasharray:none;stroke-opacity:1"
       d="m 465.76505,154.65033 207.26099,0 c 0,0 12.913,0.675 12.913,-12.332 0,-13.007 -12.913,-12.418 -12.913,-12.418 l -207.26099,0 c 0,0 -12.913,-0.589 -12.913,12.418 0,13.007 12.913,12.332 12.913,12.332 z"
       id="path4157-5" /><path
       inkscape:connector-curvature="0"
       style="fill:none;stroke:#373535;stroke-width:1;stroke-linecap:butt;stroke-linejoin:miter;stroke-miterlimit:10;stroke-dasharray:none;stroke-opacity:1"
       d="m 485.93205,234.15033 166.92699,0 c 0,0 12.913,0.675 12.913,-12.332 0,-13.007 -12.913,-12.418 -12.913,-12.418 l -166.92699,0 c 0,0 -12.913,-0.589 -12.913,12.418 0,13.007 12.913,12.332 12.913,12.332 z"
       id="path4155-3" /><path
       inkscape:connector-curvature="0"
       style="fill:none;stroke:#373535;stroke-width:1;stroke-linecap:butt;stroke-linejoin:miter;stroke-miterlimit:10;stroke-dasharray:none;stroke-opacity:1"
       d="m 365.88505,58.125331 c 0.442,0 2.63,-0.001 2.63,-0.001 0,0 0.578,-0.052 0.825,0.47 1.164,2.817 4.632,4.862 8.739,4.862 3.809,0 7.069,-1.759 8.451,-4.261 0.19,-0.345 0.39,-1.073 1.262,-1.073 l 363.20699,0 c 0.872,0 1.072,0.728 1.263,1.073 1.381,2.502 4.641,4.261 8.45,4.261 4.107,0 7.575,-2.045 8.739,-4.862 0.247,-0.522 0.825,-0.47 0.825,-0.47 0,0 2.188,0.001 2.63,0.001 0.442,0 3.714,0.244 -0.956,15.88 -5.22,16.688996 -7.792,18.526996 -12.792,14.924996 -5,-3.603 -11.544,-1.838 -12.499,2.794 -0.955,4.631 -34.383,144.593003 -40.216,163.759003 -5.833,19.167 -19.5,27.333 -33.833,28.5 0,0 -11,-1.166 -11,12.167 0,13.333 -2.667,13.833 -8.834,13.833 l -8.166,0 c -3.167,0 -8,-0.167 -8,-7 l 0,-8.833 c 0,0 2.333,-9 -11.33399,-9 l -111.761,0 c -13.667,0 -11.333,9 -11.333,9 l 0,8.833 c 0,6.833 -4.834,7 -8,7 l -8.167,0 c -6.167,0 -8.833,-0.5 -8.833,-13.833 0,-13.333 -11,-12.167 -11,-12.167 -14.334,-1.167 -28,-9.333 -33.834,-28.5 -5.833,-19.166 -39.261,-159.128003 -40.216,-163.759003 -0.955,-4.632 -7.499,-6.397 -12.499,-2.794 -5,3.602 -7.572,1.764 -12.792,-14.924996 -4.67,-15.636 -1.398,-15.88 -0.956,-15.88 z"
       id="path3389-5" /><path
       inkscape:connector-curvature="0"
       style="fill:none;stroke:#373535;stroke-width:1;stroke-linecap:butt;stroke-linejoin:miter;stroke-miterlimit:10;stroke-dasharray:none;stroke-opacity:1"
       d="m 464.90242,416.15089 207.26099,0 c 0,0 12.91301,0.675 12.91301,-12.332 0,-13.007 -12.91301,-12.418 -12.91301,-12.418 l -207.26099,0 c 0,0 -12.913,-0.589 -12.913,12.418 0,13.007 12.913,12.332 12.913,12.332 z"
       id="path4157-3-6" /><path
       inkscape:connector-curvature="0"
       style="fill:none;stroke:#373535;stroke-width:1;stroke-linecap:butt;stroke-linejoin:miter;stroke-miterlimit:10;stroke-dasharray:none;stroke-opacity:1"
       d="m 485.06942,495.65089 166.92699,0 c 0,0 12.913,0.675 12.913,-12.332 0,-13.007 -12.913,-12.418 -12.913,-12.418 l -166.92699,0 c 0,0 -12.913,-0.589 -12.913,12.418 0,13.007 12.913,12.332 12.913,12.332 z"
       id="path4155-6-2" /><path
       inkscape:connector-curvature="0"
       style="fill:none;stroke:#373535;stroke-width:1;stroke-linecap:butt;stroke-linejoin:miter;stroke-miterlimit:10;stroke-dasharray:none;stroke-opacity:1"
       d="m 365.02242,319.62589 c 0.442,0 2.63,-8e-4 2.63,-8e-4 0,0 0.578,-0.052 0.825,0.47 1.164,2.817 4.632,4.862 8.739,4.862 3.809,0 7.069,-1.759 8.451,-4.261 0.19,-0.345 0.39,-1.073 1.262,-1.073 l 363.207,0 c 0.872,0 1.072,0.728 1.263,1.073 1.381,2.502 4.641,4.261 8.45,4.261 4.107,0 7.575,-2.045 8.739,-4.862 0.247,-0.522 0.825,-0.47 0.825,-0.47 0,0 2.188,8e-4 2.63,8e-4 0.442,0 3.714,0.244 -0.956,15.88 -5.22,16.689 -7.792,18.527 -12.792,14.925 -5,-3.603 -11.544,-1.838 -12.499,2.794 -0.955,4.631 -34.383,144.593 -40.216,163.759 -5.833,19.167 -19.5,27.333 -33.83301,28.5 0,0 -11,-1.166 -11,12.167 0,13.333 -2.667,13.833 -8.834,13.833 l -8.166,0 c -3.167,0 -8,-0.167 -8,-7 l 0,-8.833 c 0,0 2.333,-9 -11.33399,-9 l -111.761,0 c -13.667,0 -11.333,9 -11.333,9 l 0,8.833 c 0,6.833 -4.834,7 -8,7 l -8.167,0 c -6.167,0 -8.833,-0.5 -8.833,-13.833 0,-13.333 -11,-12.167 -11,-12.167 -14.334,-1.167 -28,-9.333 -33.834,-28.5 -5.833,-19.166 -39.261,-159.128 -40.216,-163.759 -0.955,-4.632 -7.499,-6.397 -12.499,-2.794 -5,3.602 -7.572,1.764 -12.792,-14.925 -4.67,-15.636 -1.398,-15.88 -0.956,-15.88 z"
       id="path3389-7-9" /></g></svg>